Simulation
nRows=36
nColumns=15
endheader
time  TH_x TH_y TH_z SC_y  SC_z  SC_x  AC_y  AC_z  AC_x  GH_y  GH_z  GH_yy  EL_x  PS_y
0.0  0.000000  0.000000  0.000000  -30.617206384929748  -1.681551641582917  11.57915250400743  57.018100454312076  -6.458803604096924  -12.787780012269582  17.931435089447284  12.04187055737993  6.209562208018228  25.582667185380433  0.000000
0.015  0.000000  0.000000  0.000000  -30.72067400469172  -1.7083630032574095  11.688892755645346  57.04601578070455  -6.421382427842636  -12.822131625712387  17.854494825606096  12.329421660218461  6.093187092967724  25.58863365274645  0.000000
0.03  0.000000  0.000000  0.000000  -30.67723613101135  -1.6545929000363495  11.786848748193036  57.06217385111929  -6.419810811000274  -12.8617529725168  17.86390507770069  12.643294573479588  6.0111228339536105  25.572449566238298  0.000000
0.045  0.000000  0.000000  0.000000  -30.695507140555605  -1.6112966965908977  11.887220706996192  57.065177251583314  -6.430174066462878  -12.89439308456283  17.92060138530445  13.015407673798759  5.892496714650823  25.539568515702193  0.000000
0.06  0.000000  0.000000  0.000000  -30.73181937849217  -1.5814923340720868  11.987743945266882  57.075173391539465  -6.462388614390097  -12.925689982710413  17.979767205043725  13.43536416859262  5.667763457909823  25.50064382662796  0.000000
0.075  0.000000  0.000000  0.000000  -30.79044068013408  -1.5586279201760378  12.09568664920237  57.09689615711166  -6.507351271230231  -12.95568380022815  18.06703605963494  13.897726087414183  5.369907954519952  25.44984611646008  0.000000
0.09  0.000000  0.000000  0.000000  -30.850468933156066  -1.5342974010334685  12.215232809945737  57.117053804968606  -6.5650298917187255  -12.984310064376551  18.1706479278008  14.38996060119784  4.994327226452741  25.396301112031107  0.000000
0.105  0.000000  0.000000  0.000000  -30.91266531302743  -1.506636418814426  12.344328979833149  57.144354095452904  -6.632196255468227  -13.012400647560014  18.292892650838244  14.916164851477275  4.553997651510572  25.336977481246386  0.000000
0.12  0.000000  0.000000  0.000000  -30.974163779137044  -1.4739658851703403  12.484822936920423  57.17076336581158  -6.703757226339728  -13.041174194639312  18.42951626280799  15.471104669964708  4.058416073648234  25.276313152765866  0.000000
0.135  0.000000  0.000000  0.000000  -31.033060796648137  -1.4356255424510809  12.634128355570803  57.19934200408566  -6.777676148835491  -13.07085218513601  18.575837811860783  16.056352939590045  3.514006674878505  25.211857083093477  0.000000
0.15  0.000000  0.000000  0.000000  -31.09011488498768  -1.3920984459913828  12.791881187928842  57.228500085999265  -6.8490785943237285  -13.102370087035823  18.728295529932627  16.669665905847296  2.929716857151664  25.145521784928466  0.000000
0.16499999999999998  0.000000  0.000000  0.000000  -31.144206615424864  -1.3431832087692819  12.956288696361248  57.25794157239813  -6.915347686438407  -13.135546364400103  18.882977101932166  17.310491852125153  2.312237003917014  25.076144488273805  0.000000
0.18  0.000000  0.000000  0.000000  -31.195736137709876  -1.289499436969769  13.126100824182627  57.28859604394715  -6.973008234897067  -13.170819534968402  19.036674820511223  17.97741720166371  1.6683485749578992  25.00417405291393  0.000000
0.195  0.000000  0.000000  0.000000  -31.244529849949714  -1.2312118313438893  13.299784683011152  57.3194165010909  -7.019106939392751  -13.207873633751083  19.18689263079942  18.66904148231909  1.0047606420800417  24.929384286523863  0.000000
0.21  0.000000  0.000000  0.000000  -31.290774564189068  -1.1688321163035114  13.475839513785921  57.35184008673475  -7.051061050406622  -13.246676872216169  19.330976861512795  19.384107539440215  0.3265054909711939  24.851725116805465  0.000000
0.22499999999999998  0.000000  0.000000  0.000000  -31.334719086796582  -1.1030220750287285  13.652737588112265  57.38488616169755  -7.06572167834994  -13.287042574190032  19.46736743119581  20.12108169730661  -0.3603938281878157  24.77118079312986  0.000000
0.24  0.000000  0.000000  0.000000  -31.376476923140416  -1.0338672694354987  13.829434308324267  57.41953790259906  -7.060939556803874  -13.328995467229628  19.594074927018717  20.878342466650118  -1.0518301911265688  24.688466048681594  0.000000
0.255  0.000000  0.000000  0.000000  -31.41667789359493  -0.9606943802550836  14.006534361506452  57.45563381338358  -7.0365458179430975  -13.372158538073744  19.709995210841086  21.653919797885415  -1.7433442456903536  24.604084773380094  0.000000
0.27  0.000000  0.000000  0.000000  -31.456373641647136  -0.883948430555392  14.184568502189201  57.49525416800596  -6.993433716471562  -13.41582386633743  19.814064663562412  22.445853292736857  -2.431902519447393  24.517177396682793  0.000000
0.285  0.000000  0.000000  0.000000  -31.496603539104402  -0.8046882944066545  14.362848684561474  57.53922395725975  -6.931828208678114  -13.458459858845309  19.90597012233642  23.25152382679154  -3.114067786948547  24.42743765381748  0.000000
0.3  0.000000  0.000000  0.000000  -31.537812195639262  -0.723334142259905  14.538456605654531  57.588626113978926  -6.850589111379332  -13.496957025010088  19.9855971615096  24.067290983536083  -3.787357824669377  24.335132078631627  0.000000
0.315  0.000000  0.000000  0.000000  -31.578996315078143  -0.6398565944664806  14.707350276148981  57.644299913794526  -6.74822321102318  -13.528289808179329  20.053384386169537  24.889590692939144  -4.449312882504369  24.240030230402226  0.000000
0.32999999999999996  0.000000  0.000000  0.000000  -31.61948585582728  -0.5542596792834306  14.8669139673594  57.706679935351175  -6.624531171711459  -13.549911401834802  20.109895440650465  25.714877313880443  -5.098088889718672  24.142111713706488  0.000000
0.345  0.000000  0.000000  0.000000  -31.660724342980135  -0.46653909979039215  15.017515007001368  57.77501483102043  -6.480918570867293  -13.559272690491678  20.15666021893981  26.539676930544214  -5.730726832088567  24.04141736503649  0.000000
0.36  0.000000  0.000000  0.000000  -31.702759006795326  -0.37604599555718576  15.160657768298954  57.85137885517226  -6.319979808185244  -13.55562126195963  20.194374115644813  27.36160781506316  -6.346771797037416  23.93790675100896  0.000000
0.375  0.000000  0.000000  0.000000  -31.7461547340092  -0.28281599554199427  15.298462912695154  57.93724393887837  -6.143656604023299  -13.539610729957017  20.224433859974344  28.179428131047192  -6.945010076760298  23.83165543596665  0.000000
0.39  0.000000  0.000000  0.000000  -31.792023420576665  -0.18786623798462093  15.433582999478089  58.033086014623734  -5.953376790205623  -13.512568584352843  20.247874890530966  28.992087544298567  -7.524845197991928  23.722967578230605  0.000000
0.40499999999999997  0.000000  0.000000  0.000000  -31.840873462570933  -0.09251068744083847  15.568680140659238  58.139160272252646  -5.750482814340162  -13.477000557587337  20.26549107417165  29.799171433617687  -8.08631930009453  23.61179247463219  0.000000
0.42  0.000000  0.000000  0.000000  -31.8923562583165  0.0020894105546073816  15.706424155565541  58.25492344991953  -5.535848218493484  -13.436147743164279  20.277981250485322  30.600124361024946  -8.629587469270355  23.497957131066272  0.000000
0.435  0.000000  0.000000  0.000000  -31.94569646208927  0.09520615806511433  15.849035055315383  58.37888668128452  -5.309908508366967  -13.393383134888772  20.28603867282842  31.39432207154874  -9.154646285532644  23.381248223604043  0.000000
0.44999999999999996  0.000000  0.000000  0.000000  -32.00067622252671  0.18663964737396724  15.99798170685752  58.509449569206105  -5.072839308085165  -13.351547653251787  20.290308243261908  32.18111867643385  -9.661815012173985  23.261623740886026  0.000000
0.46499999999999997  0.000000  0.000000  0.000000  -32.05730968755535  0.27656483903148255  16.15367413701475  58.644534507919865  -4.824493800362389  -13.312486225995833  20.291428844555085  32.95992224721845  -10.151700207431643  23.13886440952931  0.000000
0.48  0.000000  0.000000  0.000000  -32.11567352166357  0.36538278234532406  16.31585265713661  58.78225663049417  -4.56458267619656  -13.27713519388145  20.28983695060724  33.7300087088346  -10.625237749597124  23.012472813105305  0.000000
0.495  0.000000  0.000000  0.000000  -32.17625171923633  0.4538243906474021  16.48385217026917  58.92085796001037  -4.292821908608541  -13.245555913416004  20.286221926920387  34.49059811233571  -11.08307726242471  22.881971155251595  0.000000
0.51  0.000000  0.000000  0.000000  -32.23943646753194  0.5426896226782969  16.656829400993022  59.058963733639885  -4.008864468319416  -13.217488977556554  20.28128180432301  35.24080395144065  -11.525900505366712  22.747071836728058  0.000000
0.525  0.000000  0.000000  0.000000  -32.305456882747954  0.6325953350779376  16.83454907610365  59.19553367638703  -3.7129595228345047  -13.192494677466065  20.275524335927894  35.979723610763365  -11.954744758089763  22.60747378561488  0.000000
